<svg width="27" height="27" viewBox="0 0 27 27" fill="none" xmlns="http://www.w3.org/2000/svg">
<g id="pen 1">
<g clip-path="url(#clip0_3_174)">
<path id="Vector" d="M26.0101 2.96684L24.032 0.98877C23.3734 0.32959 22.5096 0 21.6458 0C20.782 0 19.9182 0.32959 19.259 0.988242L0.676469 19.5708L0.00674209 25.5941C-0.0776329 26.3524 0.519848 27 1.26182 27C1.30875 27 1.35569 26.9974 1.40368 26.9921L7.42278 26.3271L26.0106 7.7393C27.3284 6.42146 27.3284 4.28467 26.0101 2.96684ZM6.64811 24.7155L1.74223 25.2592L2.28856 20.346L16.2046 6.4299L20.5695 10.7947L6.64811 24.7155ZM24.8172 6.54645L21.7623 9.60135L17.3975 5.23652L20.4524 2.18162C20.7709 1.86311 21.1949 1.6875 21.6458 1.6875C22.0967 1.6875 22.5201 1.86311 22.8392 2.18162L24.8172 4.15969C25.4748 4.81781 25.4748 5.88832 24.8172 6.54645Z" fill="#FE0000"/>
</g>
</g>
<defs>
<clipPath id="clip0_3_174">
<rect width="27" height="27" fill="white"/>
</clipPath>
</defs>
</svg>
