<svg width="26" height="28" viewBox="0 0 26 28" fill="none" xmlns="http://www.w3.org/2000/svg">
<g id="trash 1" clip-path="url(#clip0_3_165)">
<path id="Vector" d="M0.464287 3.5H6.5L8.45 1.05C8.70948 0.723985 9.04595 0.459376 9.43276 0.277129C9.81957 0.0948809 10.2461 0 10.6786 0L15.3214 0C15.7539 0 16.1804 0.0948809 16.5672 0.277129C16.954 0.459376 17.2905 0.723985 17.55 1.05L19.5 3.5H25.5357C25.6589 3.5 25.7769 3.54609 25.864 3.62814C25.9511 3.71019 26 3.82147 26 3.9375V4.8125C26 4.92853 25.9511 5.03981 25.864 5.12186C25.7769 5.20391 25.6589 5.25 25.5357 5.25H24.4388L22.5121 25.6102C22.4497 26.2629 22.1305 26.8701 21.6172 27.3124C21.1038 27.7546 20.4335 27.9999 19.7379 28H6.26205C5.56651 27.9999 4.89616 27.7546 4.38281 27.3124C3.86946 26.8701 3.55026 26.2629 3.48795 25.6102L1.56116 5.25H0.464287C0.34115 5.25 0.223057 5.20391 0.135986 5.12186C0.0489159 5.03981 0 4.92853 0 4.8125V3.9375C0 3.82147 0.0489159 3.71019 0.135986 3.62814C0.223057 3.54609 0.34115 3.5 0.464287 3.5ZM16.0643 2.1C15.9775 1.99164 15.8653 1.90367 15.7364 1.84295C15.6075 1.78223 15.4655 1.75042 15.3214 1.75H10.6786C10.5345 1.75042 10.3925 1.78223 10.2636 1.84295C10.1347 1.90367 10.0225 1.99164 9.93571 2.1L8.82143 3.5H17.1786L16.0643 2.1ZM5.33929 25.4516C5.3584 25.6696 5.46398 25.8728 5.63499 26.0208C5.806 26.1688 6.02989 26.2506 6.26205 26.25H19.7379C19.9701 26.2506 20.194 26.1688 20.365 26.0208C20.536 25.8728 20.6416 25.6696 20.6607 25.4516L22.5759 5.25H3.42411L5.33929 25.4516Z" fill="#FE0000"/>
</g>
<defs>
<clipPath id="clip0_3_165">
<rect width="26" height="28" fill="white" transform="matrix(-1 0 0 1 26 0)"/>
</clipPath>
</defs>
</svg>
